<svg width="234" height="186" viewBox="0 0 234 186" fill="none" xmlns="http://www.w3.org/2000/svg">
<g clip-path="url(#clip0_1_4)">
<path opacity="0.1" d="M135.958 32.8025C120.957 32.2274 106.658 26.8851 93.0244 21.0414C79.3911 15.1976 65.8784 8.72168 51.2283 5.62513C41.809 3.63127 31.0368 3.35084 23.4489 8.92131C16.1454 14.2803 13.7862 23.5319 12.5173 32.1157C11.5629 38.575 11.0092 45.3717 13.6182 51.4199C15.4344 55.6167 18.6574 59.1458 20.8873 63.1668C28.6433 77.1571 23.1602 94.4104 14.7536 108.082C10.811 114.499 6.23709 120.604 3.19502 127.427C0.152948 134.25 -1.25605 142.066 1.40683 149.024C4.04602 155.916 10.3327 161.102 17.145 164.745C30.9808 172.138 47.2835 174.253 63.1811 175.465C98.3717 178.119 133.752 176.969 169.035 175.819C182.093 175.391 195.209 174.961 208.054 172.73C215.188 171.491 222.554 169.529 227.733 164.79C234.306 158.773 235.937 148.587 231.531 141.042C224.141 128.389 203.711 125.245 198.545 111.666C195.703 104.192 198.622 95.8648 202.754 88.9326C211.616 74.063 226.473 61.0161 227.255 44.0171C227.793 32.3415 220.651 20.6516 209.608 15.1263C198.034 9.33006 181.983 10.062 173.445 19.6416C164.653 29.5111 149.201 33.3087 135.958 32.8025Z" fill="#0ABAB5"/>
<path d="M52.1913 172.304C52.1913 172.304 40.3418 162.423 38.1034 149.854C37.1956 144.575 34.7607 139.763 31.1639 136.139C29.4433 134.434 27.5849 132.907 25.6119 131.576" stroke="#535461" stroke-width="2" stroke-miterlimit="10"/>
<path d="M24.1621 123.658C25.2005 125.207 25.6702 131.774 25.6702 131.774C25.6702 131.774 20.1182 129.361 19.0776 127.814C18.5779 127.071 18.3666 126.138 18.49 125.223C18.6134 124.307 19.0616 123.483 19.7358 122.932C20.41 122.381 21.2552 122.147 22.0853 122.284C22.9154 122.42 23.6624 122.914 24.1621 123.658Z" fill="#F1D427"/>
<path d="M34.1198 128.81C34.2275 130.732 31.3901 136.526 31.3901 136.526C31.3901 136.526 27.915 131.17 27.8051 129.247C27.7634 128.331 28.0507 127.433 28.6048 126.748C29.159 126.064 29.9353 125.648 30.7656 125.59C31.596 125.533 32.4134 125.838 33.0409 126.441C33.6683 127.044 34.0552 127.895 34.1177 128.81H34.1198Z" fill="#F1D427"/>
<path d="M43.7717 143.62C42.9875 145.341 37.8836 148.763 37.8836 148.763C37.8836 148.763 37.3385 142.204 38.1227 140.483C38.5088 139.674 39.1674 139.065 39.9568 138.786C40.7462 138.507 41.6033 138.581 42.3437 138.992C43.0841 139.403 43.6485 140.119 43.9156 140.984C44.1827 141.85 44.131 142.796 43.7717 143.62Z" fill="#F1D427"/>
<path d="M48.7894 156.634C48.2788 158.476 43.7739 162.799 43.7739 162.799C43.7739 162.799 42.2291 156.437 42.7397 154.593C42.9851 153.708 43.5392 152.967 44.28 152.532C45.0208 152.098 45.8876 152.006 46.6899 152.277C47.4921 152.547 48.164 153.159 48.5577 153.976C48.9515 154.793 49.0348 155.749 48.7894 156.634Z" fill="#F1D427"/>
<path d="M26.254 141.184C27.9776 141.441 33.4261 138.727 33.4261 138.727C33.4261 138.727 28.8286 134.525 27.0964 134.269C26.265 134.146 25.4233 134.392 24.7565 134.953C24.0896 135.514 23.6522 136.345 23.5405 137.262C23.4288 138.179 23.6519 139.107 24.1608 139.843C24.6697 140.579 25.4226 141.061 26.254 141.184Z" fill="#F1D427"/>
<path d="M32.2971 156.325C34.0207 155.999 38.4739 151.615 38.4739 151.615C38.4739 151.615 32.9456 149.124 31.2242 149.45C30.8121 149.524 30.4174 149.688 30.063 149.932C29.7085 150.175 29.4014 150.494 29.1592 150.869C28.917 151.245 28.7446 151.669 28.6519 152.119C28.5593 152.568 28.5482 153.033 28.6193 153.487C28.6905 153.941 28.8424 154.375 29.0663 154.763C29.2903 155.152 29.5819 155.488 29.9242 155.752C30.2665 156.016 30.6529 156.203 31.0609 156.301C31.4689 156.399 31.8905 156.407 32.3014 156.325H32.2971Z" fill="#F1D427"/>
<path d="M39.9992 170.154C41.7465 170.154 46.8094 166.663 46.8094 166.663C46.8094 166.663 41.7443 163.176 39.9971 163.176C39.1583 163.176 38.3538 163.544 37.7607 164.198C37.1676 164.852 36.8344 165.74 36.8344 166.665C36.8344 167.59 37.1676 168.477 37.7607 169.132C38.3538 169.786 39.1583 170.154 39.9971 170.154H39.9992Z" fill="#F1D427"/>
<path d="M167.303 86.839C167.303 86.839 174.606 72.5683 185.615 68.4569C190.238 66.7634 194.239 63.4622 197.017 59.0485C198.32 56.9383 199.444 54.7006 200.376 52.3634" stroke="#535461" stroke-width="2" stroke-miterlimit="10"/>
<path d="M207.287 49.7492C206.033 51.0896 200.197 52.4774 200.197 52.4774C200.197 52.4774 201.63 46.0847 202.883 44.742C203.489 44.1169 204.292 43.779 205.121 43.801C205.95 43.823 206.738 44.2031 207.315 44.8595C207.892 45.516 208.213 46.3962 208.208 47.3107C208.202 48.2252 207.872 49.1009 207.287 49.7492Z" fill="#F1D427"/>
<path d="M203.987 61.306C202.263 61.6815 196.69 59.3478 196.69 59.3478C196.69 59.3478 201.042 54.8325 202.754 54.4641C203.166 54.3634 203.591 54.3544 204.005 54.4375C204.42 54.5207 204.815 54.6943 205.168 54.9482C205.521 55.2022 205.824 55.5313 206.06 55.9163C206.296 56.3012 206.46 56.7343 206.542 57.1901C206.624 57.6458 206.622 58.1151 206.538 58.5703C206.453 59.0255 206.287 59.4575 206.049 59.8409C205.811 60.2243 205.506 60.5514 205.152 60.803C204.798 61.0546 204.402 61.2256 203.987 61.306Z" fill="#F1D427"/>
<path d="M191.973 73.8254C190.323 73.1956 186.572 68.0719 186.572 68.0719C186.572 68.0719 192.389 66.6033 194.044 67.233C194.441 67.3785 194.809 67.6096 195.125 67.913C195.441 68.2163 195.699 68.5859 195.884 69.0002C196.07 69.4144 196.178 69.8652 196.205 70.3263C196.231 70.7874 196.174 71.2497 196.037 71.6862C195.899 72.1228 195.685 72.525 195.406 72.8694C195.127 73.2138 194.788 73.4937 194.41 73.6927C194.032 73.8917 193.622 74.0059 193.204 74.0287C192.786 74.0515 192.367 73.9823 191.973 73.8254Z" fill="#F1D427"/>
<path d="M180.934 81.0403C179.211 80.7266 174.738 76.3657 174.738 76.3657C174.738 76.3657 180.251 73.8324 181.973 74.1461C182.801 74.2964 183.542 74.8037 184.031 75.5562C184.521 76.3087 184.719 77.2449 184.583 78.1588C184.446 79.0727 183.987 79.8895 183.304 80.4294C182.622 80.9693 181.773 81.1882 180.945 81.0379L180.934 81.0403Z" fill="#6C63FF"/>
<path d="M191.822 54.35C191.82 56.2774 194.989 61.8692 194.989 61.8692C194.989 61.8692 198.154 56.2845 198.154 54.3595C198.165 53.8939 198.092 53.4305 197.938 52.9968C197.784 52.563 197.553 52.1677 197.258 51.834C196.963 51.5004 196.611 51.2352 196.222 51.0542C195.833 50.8731 195.415 50.7798 194.993 50.7798C194.57 50.7798 194.152 50.8731 193.763 51.0542C193.374 51.2352 193.022 51.5004 192.727 51.834C192.433 52.1677 192.201 52.563 192.048 52.9968C191.894 53.4305 191.82 53.8939 191.831 54.3595L191.822 54.35Z" fill="#F1D427"/>
<path d="M179.019 62.9673C179.54 64.8067 184.073 69.0962 184.073 69.0962C184.073 69.0962 185.581 62.7225 185.055 60.8831C184.783 60.0309 184.221 59.3286 183.488 58.9242C182.756 58.5197 181.909 58.4447 181.128 58.7148C180.346 58.9849 179.689 59.5791 179.297 60.3723C178.904 61.1655 178.806 62.0958 179.023 62.9673H179.019Z" fill="#6C63FF"/>
<path d="M167.628 73.2265C167.861 75.1277 171.67 80.2062 171.67 80.2062C171.67 80.2062 174.128 74.2056 173.896 72.2973C173.849 71.8349 173.72 71.3874 173.515 70.9811C173.309 70.5747 173.032 70.2178 172.7 69.9312C172.368 69.6446 171.987 69.4342 171.58 69.3124C171.173 69.1905 170.748 69.1596 170.331 69.2216C169.913 69.2836 169.51 69.4371 169.147 69.6732C168.783 69.9093 168.466 70.2231 168.215 70.5963C167.963 70.9694 167.781 71.3943 167.681 71.846C167.58 72.2978 167.562 72.7671 167.628 73.2265Z" fill="#6C63FF"/>
<path opacity="0.25" d="M207.287 49.7492C206.033 51.0896 200.197 52.4774 200.197 52.4774C200.197 52.4774 201.63 46.0847 202.883 44.742C203.489 44.1169 204.292 43.779 205.121 43.801C205.95 43.823 206.738 44.2031 207.315 44.8595C207.892 45.516 208.213 46.3962 208.208 47.3107C208.202 48.2252 207.872 49.1009 207.287 49.7492Z" fill="black"/>
<path opacity="0.25" d="M204.014 61.3259C202.291 61.7014 196.717 59.3677 196.717 59.3677C196.717 59.3677 201.069 54.8523 202.782 54.484C203.193 54.3833 203.619 54.3743 204.033 54.4574C204.448 54.5406 204.843 54.7142 205.196 54.9681C205.548 55.222 205.852 55.5512 206.088 55.9361C206.323 56.3211 206.487 56.7542 206.569 57.21C206.651 57.6657 206.65 58.135 206.566 58.5902C206.481 59.0454 206.315 59.4774 206.077 59.8608C205.839 60.2442 205.534 60.5713 205.18 60.8229C204.825 61.0745 204.429 61.2455 204.014 61.3259Z" fill="black"/>
<path opacity="0.25" d="M191.973 73.8254C190.323 73.1956 186.572 68.0719 186.572 68.0719C186.572 68.0719 192.389 66.6033 194.044 67.233C194.441 67.3785 194.809 67.6096 195.125 67.913C195.441 68.2163 195.699 68.5859 195.884 69.0002C196.07 69.4144 196.178 69.8652 196.205 70.3263C196.231 70.7874 196.174 71.2497 196.037 71.6862C195.899 72.1228 195.685 72.525 195.406 72.8694C195.127 73.2138 194.788 73.4937 194.41 73.6927C194.032 73.8917 193.622 74.0059 193.204 74.0287C192.786 74.0515 192.367 73.9823 191.973 73.8254Z" fill="black"/>
<path opacity="0.25" d="M180.934 81.0403C179.211 80.7266 174.738 76.3657 174.738 76.3657C174.738 76.3657 180.251 73.8324 181.973 74.1461C182.801 74.2964 183.542 74.8037 184.031 75.5562C184.521 76.3087 184.719 77.2449 184.583 78.1588C184.446 79.0727 183.987 79.8895 183.304 80.4294C182.622 80.9693 181.773 81.1882 180.945 81.0379L180.934 81.0403Z" fill="black"/>
<path opacity="0.25" d="M191.822 54.3213C191.82 56.2486 194.989 61.8405 194.989 61.8405C194.989 61.8405 198.154 56.2557 198.154 54.3308C198.165 53.8651 198.092 53.4018 197.938 52.968C197.784 52.5343 197.553 52.1389 197.258 51.8053C196.963 51.4716 196.611 51.2065 196.222 51.0254C195.833 50.8443 195.415 50.7511 194.993 50.7511C194.57 50.7511 194.152 50.8443 193.763 51.0254C193.374 51.2065 193.022 51.4716 192.727 51.8053C192.433 52.1389 192.202 52.5343 192.048 52.968C191.894 53.4018 191.82 53.8651 191.831 54.3308L191.822 54.3213Z" fill="black"/>
<path opacity="0.25" d="M179.019 62.9673C179.54 64.8067 184.073 69.0962 184.073 69.0962C184.073 69.0962 185.581 62.7225 185.055 60.8831C184.783 60.0309 184.221 59.3286 183.488 58.9242C182.756 58.5197 181.909 58.4447 181.128 58.7148C180.346 58.9849 179.689 59.5791 179.297 60.3723C178.904 61.1655 178.806 62.0958 179.023 62.9673H179.019Z" fill="black"/>
<path opacity="0.25" d="M167.628 73.2265C167.861 75.1277 171.67 80.2062 171.67 80.2062C171.67 80.2062 174.128 74.2056 173.896 72.2973C173.849 71.8349 173.72 71.3874 173.515 70.9811C173.309 70.5747 173.032 70.2178 172.7 69.9312C172.368 69.6446 171.987 69.4342 171.58 69.3124C171.173 69.1905 170.748 69.1596 170.331 69.2216C169.913 69.2836 169.51 69.4371 169.147 69.6732C168.783 69.9093 168.466 70.2231 168.215 70.5963C167.963 70.9694 167.781 71.3943 167.681 71.846C167.58 72.2978 167.562 72.7671 167.628 73.2265Z" fill="black"/>
<path d="M167.723 86.5562C167.723 86.5562 169.158 70.244 177.702 61.5698C181.306 57.9548 183.751 53.1486 184.67 47.8718C185.088 45.3633 185.296 42.8177 185.292 40.2671" stroke="#535461" stroke-width="2" stroke-miterlimit="10"/>
<path d="M190.648 34.7631C190.002 36.5502 185.167 40.4287 185.167 40.4287C185.167 40.4287 184.129 33.9432 184.782 32.1561C185.096 31.298 185.706 30.6127 186.479 30.2511C187.251 29.8894 188.122 29.881 188.9 30.2276C189.678 30.5743 190.299 31.2476 190.627 32.0995C190.955 32.9514 190.963 33.9121 190.648 34.7703V34.7631Z" fill="#F1D427"/>
<path d="M191.878 46.8167C190.45 47.9242 184.489 48.2878 184.489 48.2878C184.489 48.2878 186.811 42.2182 188.24 41.1108C188.578 40.8311 188.964 40.6293 189.375 40.5172C189.786 40.4051 190.213 40.3851 190.631 40.4584C191.049 40.5316 191.449 40.6965 191.808 40.9435C192.167 41.1904 192.478 41.5143 192.721 41.896C192.965 42.2777 193.136 42.7094 193.226 43.1656C193.315 43.6217 193.321 44.0931 193.242 44.5517C193.164 45.0103 193.003 45.4469 192.768 45.8355C192.534 46.2242 192.231 46.557 191.878 46.8143V46.8167Z" fill="#F1D427"/>
<path d="M185.488 63.6373C183.748 63.7989 178.435 60.7856 178.435 60.7856C178.435 60.7856 183.218 56.8406 184.958 56.679C185.794 56.6015 186.624 56.8934 187.265 57.4906C187.906 58.0879 188.305 58.9414 188.375 59.8635C188.446 60.7856 188.181 61.7007 187.639 62.4076C187.098 63.1144 186.324 63.5551 185.488 63.6326V63.6373Z" fill="#F1D427"/>
<path d="M178.054 75.161C176.363 75.6363 170.666 73.6709 170.666 73.6709C170.666 73.6709 174.775 68.8918 176.466 68.407C177.278 68.1747 178.14 68.3078 178.863 68.7769C179.586 69.2459 180.111 70.0126 180.321 70.9083C180.532 71.8039 180.411 72.7551 179.986 73.5526C179.561 74.3502 178.866 74.9287 178.054 75.161Z" fill="#6C63FF"/>
<path d="M178.204 45.8946C178.911 47.6556 183.853 51.3606 183.853 51.3606C183.853 51.3606 184.693 44.8395 183.987 43.0785C183.635 42.2546 183.004 41.6153 182.231 41.2972C181.457 40.9791 180.601 41.0074 179.846 41.376C179.091 41.7447 178.496 42.4245 178.19 43.2702C177.883 44.1158 177.888 45.0603 178.204 45.9018V45.8946Z" fill="#F1D427"/>
<path d="M169.664 59.4928C170.817 60.9401 176.534 62.8365 176.534 62.8365C176.534 62.8365 175.569 56.3369 174.417 54.8896C174.145 54.538 173.812 54.2496 173.438 54.041C173.064 53.8325 172.656 53.708 172.238 53.6748C171.82 53.6416 171.4 53.7004 171.003 53.8477C170.606 53.995 170.239 54.228 169.924 54.533C169.609 54.838 169.353 55.209 169.169 55.6244C168.985 56.0398 168.878 56.4914 168.854 56.9528C168.829 57.4143 168.889 57.8765 169.028 58.3125C169.167 58.7486 169.383 59.1498 169.664 59.4928Z" fill="#6C63FF"/>
<path d="M163.009 73.9703C163.922 75.6101 169.268 78.545 169.268 78.545C169.268 78.545 169.313 71.9598 168.406 70.3177C167.954 69.5594 167.253 69.025 166.45 68.8278C165.647 68.6305 164.806 68.7859 164.106 69.261C163.405 69.7362 162.9 70.4936 162.697 71.3728C162.494 72.2519 162.61 73.1836 163.02 73.9703H163.009Z" fill="#6C63FF"/>
<path d="M156.735 22.674C157.093 21.2267 157.524 19.7723 157.825 18.306C157.464 19.7723 157.031 21.2315 156.735 22.674Z" fill="url(#paint0_linear_1_4)"/>
<path d="M155.132 36.6144C155.102 36.5574 155.081 36.5004 155.057 36.4481C155.057 36.4243 155.035 36.4053 155.027 36.3816C154.98 36.406 154.932 36.4274 154.882 36.4457C154.788 36.4861 154.691 36.5241 154.592 36.555C154.492 36.5859 154.451 36.6026 154.376 36.6216C154.314 36.6453 154.249 36.6636 154.184 36.6762L154.202 36.719C154.281 36.7 154.359 36.6834 154.439 36.6596L154.46 36.9543C154.551 36.9543 154.635 36.94 154.716 36.94C154.755 36.9377 154.794 36.9377 154.833 36.94C155.001 36.94 155.147 36.94 155.264 36.94C155.218 36.8331 155.171 36.7214 155.132 36.6144ZM198.867 113.406C197.855 111.901 195.834 95.7556 195.834 95.7556C195.834 95.7556 191.859 84.2748 192.943 79.693C194.026 75.1111 189.982 63.3879 189.982 63.3879C189.982 63.3879 187.311 62.107 187.167 60.2058C187.167 60.2058 176.259 56.4034 175.748 53.5516C175.334 51.2132 168.57 49.5354 166.139 49.0054C165.398 45.7069 164.653 42.6293 164.103 40.9492C163.955 40.4263 163.815 39.9748 163.685 39.6183C162.757 37.0042 159.887 36.7665 157.806 36.9757C157.716 36.5301 157.548 36.1081 157.313 35.7328C157.278 35.6037 157.21 35.4888 157.117 35.4024C157.072 35.3604 157.024 35.3223 156.974 35.2884C156.937 35.2113 156.887 35.1422 156.828 35.084C156.769 35.0252 156.704 34.9742 156.634 34.9319C156.584 34.902 156.532 34.8758 156.479 34.8535C156.354 34.801 156.225 34.762 156.093 34.737C155.94 34.7022 155.784 34.68 155.628 34.6705C156.008 34.487 156.347 34.2136 156.621 33.8696C156.807 33.6281 156.946 33.3465 157.028 33.0426C157.096 32.7899 157.127 32.5266 157.119 32.2631C157.063 32.3717 156.998 32.4743 156.925 32.5697C157.015 31.5169 156.511 30.4475 156.222 29.3994C155.873 28.0351 155.808 26.6009 156.033 25.2049C156.322 23.0994 157.037 20.9701 157.522 18.8265C157.523 18.8146 157.523 18.8027 157.522 18.7908C157.776 17.7263 157.933 16.6364 157.991 15.5374C158.075 13.3202 157.56 11.1076 156.733 9.08764C155.998 7.29814 154.915 5.53717 153.256 4.80996C152.023 4.261 150.642 4.34893 149.315 4.25862C146.338 4.05424 143.498 2.89927 140.667 1.84887C137.836 0.798461 134.924 -0.156886 131.944 0.0261035C128.965 0.209093 125.899 1.79421 124.539 4.70302C124.108 5.61084 123.861 6.62085 123.346 7.474C122.381 9.08288 120.653 9.88851 119.211 10.9983C117.77 12.1081 116.501 13.6838 115.98 15.5636C115.695 16.5763 115.655 17.6535 115.863 18.6886C115.91 18.9224 115.971 19.1526 116.044 19.3778C116.249 20.0057 116.568 20.5808 116.982 21.0675C117.294 21.4272 117.652 21.7339 118.046 21.9777C118.54 22.2799 119.069 22.5069 119.619 22.6526C119.599 22.7239 119.58 22.7999 119.558 22.8736C119.524 22.9948 119.494 23.1113 119.461 23.242C119.39 23.5343 119.323 23.8313 119.267 24.1308C119.265 24.1521 119.265 24.1736 119.267 24.1949C119.003 25.5467 118.87 26.9257 118.871 28.3086C118.871 28.9627 118.901 29.6163 118.961 30.2669C119.823 39.9106 127.041 47.5178 135.958 48.0121C136.264 48.0287 136.572 48.0382 136.884 48.0382C137.026 48.0382 137.166 48.0382 137.315 48.0382C137.455 48.2426 137.593 48.4517 137.724 48.6561C137.856 48.8605 137.977 49.0696 138.091 49.274L137.778 48.9175L137.466 48.6014C137.381 48.7296 137.287 48.8497 137.184 48.9603C136.98 48.8812 136.772 48.8162 136.561 48.7654C135.667 48.5468 134.305 48.466 132.513 49.0625C130.865 49.6067 128.85 50.726 126.493 52.853L115.008 60.4577L108.795 64.6261L106.556 70.6623C106.556 70.6623 104.874 77.8346 103.001 86.0524C102.928 86.0762 102.857 86.1 102.786 86.1285C102.634 86.1094 102.482 86.0999 102.329 86.1C101.243 86.0972 100.198 86.5588 99.4138 87.3879C98.6296 88.217 98.1672 89.3491 98.1238 90.5464C94.4009 95.537 94.1897 100.528 95.0644 102.819C95.1437 103.033 95.2433 103.238 95.3618 103.429C95.9348 104.342 97.0056 106.695 98.0914 109.202C98.0634 109.409 98.0462 109.582 98.0376 109.713C98.0356 109.755 98.0356 109.798 98.0376 109.841C98.0376 109.841 98.6839 120.609 96.5295 123.696C96.0576 124.368 96.1287 125.253 96.5295 126.232C97.9729 129.754 103.68 134.457 103.68 134.457C103.68 134.457 110.525 134.416 114.338 133.958C114.327 134.381 114.319 134.801 114.31 135.212C114.224 139.366 114.224 142.848 114.224 142.848L114.082 147.204C114.082 147.204 112.789 156.384 112.143 158.915C111.735 160.503 112.205 175.201 112.614 186.007H180.053C180.845 179.615 179.727 160.192 179.727 160.192C179.727 160.192 178.665 155.17 178.626 150.793C178.624 150.788 178.623 150.782 178.623 150.777C178.623 150.772 178.624 150.767 178.626 150.762C178.626 150.379 178.626 150.006 178.639 149.64L179.128 149.621L180.007 149.588H180.087C180.087 149.588 180.109 149.497 180.158 149.35C180.275 148.983 180.433 148.634 180.63 148.312C181.005 147.701 181.591 147.102 182.472 147.062C182.959 147.04 183.713 146.605 184.564 145.964C184.57 145.965 184.576 145.965 184.581 145.964C186.871 144.255 189.898 141.101 190.633 140.583C191.644 139.87 196.482 135.117 196.482 135.117C196.482 135.117 197.204 134.11 197.973 132.895L198.001 132.853C198.958 131.332 199.975 129.514 199.725 128.941C199.294 127.914 200.014 125.459 200.014 125.459C202.261 120.923 199.88 114.91 198.867 113.406ZM157.207 40.3099C157.228 40.3808 157.241 40.4542 157.246 40.5285C157.192 40.4501 157.138 40.3669 157.084 40.2909L157.033 40.2148L156.996 40.1578L157.078 40.0342C157.078 40.0342 157.078 40.0342 157.078 40.0508C157.135 40.1279 157.178 40.2156 157.207 40.3099ZM156.483 38.2043C156.248 38.2566 156.063 38.3041 155.942 38.3398C155.789 38.0403 155.643 37.7409 155.511 37.4367C155.857 37.6577 156.182 37.9148 156.483 38.2043ZM156.078 38.5798C156.077 38.5751 156.077 38.5703 156.078 38.5655L156.095 38.5798C156.184 38.644 156.27 38.7058 156.35 38.7699C156.421 38.827 156.485 38.8816 156.55 38.9386C156.507 39.0218 156.459 39.1074 156.412 39.1763C156.337 39.0456 156.266 38.9196 156.197 38.7889C156.153 38.7366 156.115 38.6654 156.078 38.5798ZM154.785 35.6472C155.202 35.6019 155.621 35.6019 156.037 35.6472C156.095 35.6472 156.147 35.6591 156.199 35.6686C156.316 35.6885 156.43 35.7212 156.541 35.766C156.796 36.1589 156.953 36.6186 156.996 37.0992L156.88 37.1183L156.765 37.142C156.55 37.1824 156.334 37.2228 156.166 37.2608L155.951 37.3108C155.664 37.3797 155.499 37.432 155.492 37.4343C155.464 37.3702 155.436 37.3108 155.406 37.249C155.359 37.1468 155.309 37.0422 155.266 36.94C155.223 36.8378 155.167 36.7214 155.122 36.6144C155.091 36.5574 155.07 36.5004 155.046 36.4481C155.046 36.4243 155.025 36.4053 155.016 36.3816C155.003 36.3563 154.993 36.3301 154.984 36.3031C154.852 36.0084 154.732 35.7138 154.615 35.4238C154.602 35.3953 154.592 35.3644 154.581 35.3359L154.744 35.324V35.3858L154.785 35.6472ZM103.383 183.07C103.365 179.531 103.133 175.703 102.486 172.11C102.211 170.582 101.926 169.053 101.638 167.552C101.564 167.176 101.493 166.805 101.422 166.435L100.759 166.532H100.698C98.8886 157.119 96.997 148.825 96.997 148.825C96.997 148.825 93.2396 133 93.6748 131.738C93.7308 131.574 93.6598 131.132 93.5003 130.483C92.5912 126.885 88.795 116.97 87.4679 113.582C87.4679 113.567 87.4571 113.551 87.4528 113.539C87.2374 112.971 87.0823 112.588 87.0349 112.477L87.3473 107.419L87.3645 107.115L87.4054 106.469L87.3882 106.452L87.4054 106.153C87.4054 106.153 84.1264 103.187 78.5722 101.046C78.3568 100.96 78.1284 100.877 77.9022 100.796C78.1801 98.75 78.5485 96.44 79.029 94.1895C79.0742 93.9637 79.1238 93.7451 79.1755 93.5241C79.2207 93.3031 79.2724 93.0892 79.3241 92.8729C79.406 92.5212 79.4943 92.1743 79.5848 91.832C79.8843 91.7275 80.1794 91.611 80.4703 91.4875L80.5823 91.4399C84.1653 89.902 87.1218 86.9841 88.9043 83.2265C90.6868 79.4688 91.1746 75.126 90.2773 71.0022C89.7657 68.6633 88.8209 66.4666 87.5024 64.55C87.4033 64.4027 87.2977 64.2553 87.1921 64.1104C87.0866 63.9654 86.9595 63.8038 86.841 63.6564C87.4636 62.0951 88.1983 60.6098 88.2586 59.0912C88.2694 58.8989 88.2694 58.7061 88.2586 58.5137V58.49C88.1789 57.5132 87.7868 56.5246 86.8733 55.4861C85.5397 53.9628 83.6416 53.1904 81.7436 52.8197C79.8455 52.449 77.9108 52.4394 76.002 52.1899C72.8371 51.7717 69.7541 50.6951 66.5893 50.3648C62.691 49.9666 58.7662 50.7041 55.2074 52.5036C52.8526 53.6919 50.4676 55.7689 50.3254 58.6183C50.2091 60.9734 51.6956 63.2311 51.3208 65.5576C50.9481 67.8438 48.8367 69.6428 49.022 71.9551C49.0931 72.8582 49.5132 73.6662 50.0389 74.3863C50.2199 74.6239 50.4116 74.8616 50.6098 75.0992C51.3768 75.9952 52.2213 76.8554 52.6501 77.9843C52.6673 78.0318 52.6845 78.0793 52.6996 78.1269C53.0637 79.2414 52.9 80.6507 51.9994 81.29C52.0044 81.2942 52.0081 81.3 52.0102 81.3066C52.0231 81.3256 52.036 81.3399 52.0468 81.3589C52.0481 81.3551 52.0481 81.3508 52.0468 81.347C52.3661 81.7646 52.7965 82.0606 53.277 82.193L53.4601 82.2548C53.3115 82.433 53.1714 82.6184 53.0292 82.8133L52.9366 82.9487C52.6992 83.3009 52.4832 83.67 52.2903 84.0538C52.1804 84.2677 52.0748 84.4816 51.9865 84.6955C51.6912 85.3474 51.4774 86.0405 51.3509 86.7559C51.1204 88.3291 51.4457 89.9689 51.0967 91.5088C50.6658 93.41 49.3021 94.8692 48.5329 96.6349C47.0765 99.962 47.9017 103.867 48.1947 107.541C48.5933 112.531 47.9469 117.543 47.3027 122.501C46.9609 125.137 46.6191 127.776 46.2772 130.417C45.4155 137.045 44.5537 143.674 43.6919 150.303C43.3774 152.732 43.0046 155.294 41.5375 157.169H41.5526C41.5526 157.169 41.5526 157.183 41.5375 157.188C41.9779 157.4 42.4463 157.533 42.9249 157.582C44.8402 157.794 46.8697 156.772 48.5933 155.655C49.9582 154.785 51.2508 153.784 52.4562 152.663C52.2795 153.376 52.0899 154.153 51.8874 154.989C51.8881 154.997 51.8881 155.005 51.8874 155.013C49.455 165.232 45.5426 183.966 45.5426 183.966C45.5426 183.966 45.1871 184.781 44.726 185.995H105.481C104.77 185.045 104.109 184.135 103.592 183.4L103.383 183.07ZM58.3981 88.581C58.4132 88.5525 58.4239 88.5264 58.439 88.5002C58.439 88.5763 58.439 88.6499 58.439 88.7212C58.439 88.7925 58.439 88.8567 58.439 88.9232C58.439 88.9898 58.439 88.9826 58.439 89.0159C58.439 89.1133 58.4196 89.2108 58.4046 89.3082C58.4046 89.3082 58.4046 89.3201 58.4046 89.3296L58.62 89.4175L58.8699 89.5316C60.3464 90.1748 61.8416 90.7571 63.3555 91.2783C63.5106 91.333 63.6678 91.3853 63.8251 91.4352L63.8574 91.7299C63.8962 92.0317 63.9328 92.3382 63.9673 92.6448C63.9673 92.6448 63.9673 92.6591 63.9673 92.6686C64.0643 93.517 64.1591 94.363 64.2431 95.19C64.2431 95.19 60.2875 93.5265 60.3371 96.0527C60.3348 96.0978 60.3348 96.143 60.3371 96.1881C60.3327 96.2482 60.3327 96.3086 60.3371 96.3688C60.3737 98.3365 60.9317 99.5033 61.0437 100.102C61.037 100.127 61.0252 100.15 61.0093 100.169C60.9137 100.398 60.8807 100.653 60.9145 100.903C60.9107 101.328 60.941 101.753 61.005 102.172C60.8886 102.251 60.7744 102.329 60.6603 102.41C60.5741 102.469 60.4922 102.536 60.4082 102.602C59.8797 100.58 59.1882 98.6139 58.3421 96.7276C57.7496 95.3825 57.0839 93.9804 57.0903 92.5046C57.0903 92.4095 57.0904 92.3121 57.1011 92.2147C57.1251 91.7869 57.199 91.3644 57.3209 90.9575C57.3704 90.803 57.4243 90.6509 57.4846 90.5012C57.6254 90.1455 57.7829 89.798 57.9564 89.4603C58.0685 89.2369 58.187 89.0159 58.3011 88.7925C58.3378 88.726 58.3722 88.6571 58.4067 88.5905L58.3981 88.581ZM155.132 36.6144C155.102 36.5574 155.081 36.5004 155.057 36.4481C155.057 36.4243 155.035 36.4053 155.027 36.3816C154.98 36.406 154.932 36.4274 154.882 36.4457C154.788 36.4861 154.691 36.5241 154.592 36.555C154.492 36.5859 154.451 36.6026 154.376 36.6216L154.184 36.6762L154.202 36.719C154.281 36.7 154.359 36.6834 154.439 36.6596L154.46 36.9543C154.551 36.9543 154.635 36.94 154.716 36.94H154.833C155.001 36.94 155.147 36.94 155.264 36.94C155.218 36.8331 155.171 36.7214 155.132 36.6144Z" fill="url(#paint1_linear_1_4)"/>
<path d="M108.058 71.5202L106.765 72.1499C106.765 72.1499 98.3392 108.258 98.3392 111.177C98.3392 114.095 116.206 130.333 116.206 130.333L118.994 109.577C118.994 109.577 114.991 61.9786 108.058 71.5202Z" fill="white"/>
<path d="M147.249 60.0347L139.784 55.738C139.366 53.7718 138.624 51.907 137.595 50.2364C136.503 48.4969 135.051 46.7882 133.241 45.897C128.667 43.6346 152.588 31.7593 152.588 31.7593C152.965 33.1859 153.409 34.5899 153.917 35.9657C155.15 39.3213 157.194 43.6607 159.829 44.8965C164.308 46.9997 147.249 60.0347 147.249 60.0347Z" fill="#3D0C02"/>
<path opacity="0.1" d="M153.917 35.9657C152.895 39.9308 150.77 43.4416 147.841 46.0023C144.912 48.5629 141.328 50.044 137.595 50.2364C136.503 48.4969 135.051 46.7882 133.241 45.897C128.667 43.6346 152.588 31.7593 152.588 31.7593C152.965 33.1859 153.409 34.5899 153.917 35.9657Z" fill="black"/>
<path d="M154.589 29.9698C154.59 33.8586 153.546 37.6603 151.587 40.8942C149.629 44.128 146.846 46.6487 143.589 48.1374C140.332 49.6262 136.748 50.016 133.29 49.2578C129.833 48.4995 126.656 46.6272 124.163 43.8775C121.67 41.1279 119.972 37.6245 119.285 33.8104C118.597 29.9963 118.95 26.0429 120.299 22.4502C121.648 18.8575 123.933 15.7868 126.865 13.6265C129.796 11.4663 133.242 10.3135 136.768 10.3139C139.111 10.302 141.433 10.8022 143.6 11.7857C145.767 12.7693 147.736 14.2166 149.393 16.0442C151.05 17.8718 152.362 20.0433 153.254 22.4335C154.146 24.8237 154.6 27.3851 154.589 29.9698Z" fill="#3D0C02"/>
<path d="M157.162 57.5108L152.301 70.0206L148.014 78.324H134.29L130.287 66.9715L131.91 55.1984H142.391L149.158 54.7778L151.444 53.9365L152.918 54.8586L157.162 57.5108Z" fill="#575A89"/>
<path opacity="0.1" d="M155.488 40.8351C155.488 40.8351 158.519 41.548 155.805 44.0029C153.09 46.4579 143.725 54.2646 143.725 54.2646C143.725 54.2646 147.014 57.4966 146.334 61.2823L157.233 54.5807L159.172 43.858C159.172 43.858 159.39 40.6355 155.488 40.8351Z" fill="black"/>
<path opacity="0.1" d="M145.868 54.2646L138.935 55.5265C138.935 55.5265 140.366 61.3608 139.651 63.0172C139.629 63.0687 139.611 63.1219 139.597 63.1764L136.768 71.6105L138.888 78.2338L146.226 67.1951L143.725 63.0172C143.725 63.0172 146.368 59.153 147.941 57.8127C149.514 56.4724 145.868 54.2646 145.868 54.2646Z" fill="black"/>
<path d="M145.868 53.9389L138.935 55.1985C138.935 55.1985 140.366 61.0327 139.651 62.6891C139.629 62.7406 139.611 62.7938 139.597 62.8483L136.768 71.2825L138.888 77.9057L146.226 66.8598L143.725 62.682C143.725 62.682 146.368 58.8178 147.941 57.4775C149.514 56.1372 145.868 53.9389 145.868 53.9389Z" fill="#DCE6F2"/>
<path d="M155.779 40.2053C155.779 40.2053 158.81 40.9183 156.093 43.3732C153.377 45.8281 143.725 54.2646 143.725 54.2646C143.725 54.2646 147.299 56.8668 146.62 60.6502L157.519 53.9509L159.458 43.2282C159.458 43.2282 159.674 40.0057 155.779 40.2053Z" fill="#575A89"/>
<path opacity="0.1" d="M138.072 50.9803C138.072 50.9803 138.733 52.3444 141.652 54.804C141.652 54.804 136.792 57.6558 138.651 61.6649L131.216 59.5261L130.072 55.5835L138.072 50.9803Z" fill="black"/>
<path d="M137.785 50.6665C137.785 50.6665 138.446 52.0306 141.366 54.4903C141.366 54.4903 136.505 57.3278 138.364 61.3488L130.932 59.21L129.788 55.2698L137.785 50.6665Z" fill="#575A89"/>
<path opacity="0.1" d="M157.162 57.5108L152.301 70.0205L148.023 78.3239H134.29L130.287 66.9715L131.908 55.1984H134.823C134.775 57.9457 135.684 61.1729 135.626 62.373C135.527 64.3455 138.293 74.9874 138.293 74.9874C138.293 74.9874 144.082 64.6592 146.368 63.7395C147.805 63.162 150.849 58.3568 152.916 54.8586L157.162 57.5108Z" fill="black"/>
<path d="M176.308 123.342L175.815 124.026C175.815 124.026 179.389 143.815 178.4 148.309C178.232 149.119 178.136 149.945 178.114 150.776V150.811C177.939 155.384 179.191 161.318 179.191 161.318C179.191 161.318 180.191 178.809 179.622 186.002H112.701C112.309 175.365 111.887 161.584 112.27 160.056C112.916 157.534 114.209 148.387 114.209 148.387L114.351 144.053C114.351 144.053 114.351 139.863 114.468 135.196C114.517 133.097 114.59 130.894 114.696 128.941C114.832 126.483 115.021 124.413 115.282 123.396C115.443 122.625 115.535 121.839 115.558 121.048C115.558 120.975 115.558 120.899 115.571 120.823C115.571 120.585 115.592 120.328 115.601 120.065C115.601 119.991 115.601 119.917 115.601 119.827C115.642 118.296 115.627 116.481 115.581 114.599C115.581 114.496 115.581 114.392 115.581 114.287C115.545 112.876 115.491 111.436 115.431 110.067C115.243 105.789 115 102.172 115 102.172L106.781 72.1333L108.995 66.116L115.142 61.962L126.507 54.3929C132.05 49.3666 135.7 49.9702 137.091 50.5216C137.226 50.5725 137.359 50.632 137.488 50.6998C137.531 50.7236 137.565 50.7426 137.598 50.764C137.642 50.7871 137.684 50.8141 137.725 50.8448C137.344 51.047 137.012 51.3479 136.759 51.7217C136.474 52.1471 136.271 52.6324 136.163 53.1476C136.09 53.4669 136.039 53.7918 136.01 54.1196C135.982 54.4642 135.971 54.8206 135.971 55.1795C135.986 55.9664 136.047 56.7515 136.154 57.5298C136.154 57.5441 136.154 57.5631 136.154 57.5821C136.225 58.1382 136.314 58.6824 136.4 59.1933C136.399 59.202 136.399 59.2108 136.4 59.2195C136.499 59.816 136.598 60.3673 136.665 60.8426C136.678 60.9282 136.688 61.0066 136.699 61.0803C136.747 61.3944 136.769 61.7125 136.766 62.0309C136.79 62.7997 136.884 63.564 137.046 64.3123C137.102 64.626 137.167 64.9611 137.238 65.3104C137.335 65.7857 137.44 66.3038 137.554 66.8314C137.617 67.1213 137.684 67.4207 137.753 67.7178C137.779 67.8366 137.807 67.9554 137.832 68.0766L137.875 68.2644C138.334 70.2773 138.832 72.2806 139.138 73.4926C139.319 74.2056 139.433 74.6452 139.433 74.6452C139.433 74.6452 142.678 68.8585 145.267 65.5647C145.306 65.5172 145.341 65.472 145.377 65.4292C145.634 65.1037 145.886 64.8066 146.127 64.5452C146.655 63.9653 147.129 63.5518 147.51 63.3997C147.591 63.3668 147.67 63.3263 147.745 63.2785C148.805 62.6155 150.516 60.2081 152.116 57.6867C152.274 57.449 152.427 57.19 152.582 56.9452C152.937 56.3796 153.282 55.8116 153.607 55.2674C153.857 54.8515 154.096 54.4475 154.322 54.0625C155.4 52.2136 156.158 50.8353 156.158 50.8353L157.653 50.7616L157.914 50.7473H158.088L164.877 50.4004C164.877 50.4004 165.17 50.455 165.653 50.562C165.678 50.562 165.704 50.562 165.732 50.581C168.141 51.1086 174.833 52.7792 175.242 55.0963C175.742 57.9338 186.536 61.7195 186.536 61.7195C186.678 63.6207 189.321 64.8731 189.321 64.8731C189.321 64.8731 193.324 76.5417 192.253 81.114C191.196 85.6293 195.007 96.7988 195.108 97.1125L194.378 98.1296L176.308 123.342Z" fill="white"/>
<path opacity="0.1" d="M155.486 40.0057C155.486 40.0057 162.094 37.9382 163.595 42.1944C165.097 46.4507 168.456 63.6398 168.456 63.6398C168.456 63.6398 159.734 65.4531 157.449 63.6398C156.108 62.5637 154.448 62.085 152.801 62.2995L147.87 66.0044L146.414 65.5291C146.414 65.5291 154.303 52.5916 156.018 48.1951C157.733 43.7986 158.313 41.8332 155.486 40.0057Z" fill="black"/>
<path d="M155.199 39.0551C155.199 39.0551 161.811 36.9876 163.319 41.2438C164.827 45.5001 168.18 62.6892 168.18 62.6892C168.18 62.6892 159.461 64.5025 157.173 62.6892C155.833 61.613 154.174 61.1343 152.528 61.3489L147.592 65.0538L146.135 64.5785C146.135 64.5785 154.025 51.6409 155.74 47.2444C157.455 42.848 158.026 40.8874 155.199 39.0551Z" fill="white"/>
<path opacity="0.1" d="M110.846 107.628C110.846 107.628 115.777 108.969 116.708 112.044C117.639 115.119 113.063 115.197 113.063 115.197C113.063 115.197 110.275 109.758 110.846 107.628Z" fill="black"/>
<path opacity="0.1" d="M129.215 130.333C129.215 130.333 117.137 157.613 119.925 160.215C122.712 162.818 129.215 130.333 129.215 130.333Z" fill="black"/>
<path opacity="0.1" d="M145.868 110.231C145.868 110.231 155.518 136.728 153.588 140.821C151.657 144.913 157.733 140.821 157.733 140.821L145.868 110.231Z" fill="black"/>
<path d="M159.306 136.405C159.306 136.405 126.713 138.14 136.221 149.336C145.728 160.531 165.239 149.811 165.239 149.811L159.306 136.405Z" fill="#3D0C02"/>
<path opacity="0.1" d="M154.59 29.9698C154.593 32.5483 154.133 35.1021 153.239 37.4843C152.939 37.5223 152.64 37.5461 152.351 37.5603C151.92 36.517 152.151 35.3122 152.159 34.1643C152.168 33.0165 151.785 31.6666 150.783 31.3577C148.786 30.7374 147.407 34.8559 145.438 34.112C143.929 33.5464 144.324 31.0226 143.455 29.5658C142.768 28.4132 141.392 28.0876 140.321 27.3652C138.044 25.8229 138.112 23.3561 137.055 21.0224C135.947 18.577 133.608 19.2994 131.576 20.7419C130.033 21.8399 128.702 23.3109 127.052 24.1855C125.623 24.9459 124.018 25.2216 122.435 25.262C121.46 25.3037 120.485 25.19 119.539 24.9245C120.651 20.3127 123.246 16.3045 126.84 13.6474C130.433 10.9902 134.78 9.86553 139.07 10.4831C143.36 11.1006 147.3 13.4182 150.155 17.0037C153.01 20.5891 154.586 25.1976 154.587 29.9698H154.59Z" fill="black"/>
<path d="M131.582 20.1121C130.038 21.2101 128.708 22.6787 127.058 23.558C125.63 24.3161 124.025 24.5918 122.441 24.6322C120.502 24.6797 118.415 24.3043 117.09 22.7595C115.872 21.3337 115.581 19.1402 116.096 17.2699C116.611 15.3996 117.846 13.8477 119.296 12.7237C120.746 11.5996 122.428 10.8225 123.389 9.21361C123.898 8.36283 124.143 7.35996 124.565 6.45452C125.916 3.55759 128.954 1.98911 131.891 1.79424C134.827 1.59937 137.738 2.56422 140.534 3.60987C143.331 4.65552 146.149 5.80574 149.1 6.022C150.414 6.11231 151.78 6.022 153 6.57097C154.639 7.3053 155.714 9.06152 156.447 10.8486C157.268 12.8639 157.778 15.0645 157.692 17.2651C157.511 21.9634 154.697 26.5738 155.934 31.0749C156.262 32.275 156.876 33.506 156.548 34.7061C156.07 36.4576 154.021 36.8568 152.364 36.94C151.933 35.8967 152.164 34.6895 152.172 33.544C152.181 32.3986 151.798 31.0463 150.798 30.7374C148.799 30.1219 147.42 34.2332 145.455 33.4917C143.958 32.9238 144.345 30.4023 143.475 28.9455C142.788 27.7906 141.409 27.4674 140.34 26.7449C138.063 25.2026 138.132 22.7358 137.074 20.4021C135.958 17.9448 133.616 18.6672 131.582 20.1121Z" fill="black"/>
<path d="M99.979 110.544L98.3352 111.176C98.3352 111.176 98.9815 121.899 96.8271 124.974C94.6726 128.049 103.902 135.695 103.902 135.695C103.902 135.695 116.553 135.616 116.911 134.506C117.268 133.397 116.264 114.639 116.264 114.639C116.264 114.639 109.474 111.721 110.045 107.07C110.045 107.07 107.972 118.028 104.9 117.555C101.828 117.082 98.3395 114.252 99.979 110.544Z" fill="white"/>
<path opacity="0.1" d="M105.462 120.873C107.857 120.873 109.799 118.914 109.799 116.497C109.799 114.081 107.857 112.122 105.462 112.122C103.067 112.122 101.125 114.081 101.125 116.497C101.125 118.914 103.067 120.873 105.462 120.873Z" fill="black"/>
<path d="M110.204 110.861C110.204 110.861 109.342 81.8484 101.84 88.3124C94.3386 94.7765 94.2653 102.507 95.6937 104.791C97.1221 107.075 101.702 118.508 101.702 118.508C102.419 118.966 103.224 119.23 104.05 119.279C104.877 119.328 105.703 119.16 106.46 118.789C107.216 118.418 107.883 117.855 108.404 117.145C108.925 116.435 109.287 115.599 109.458 114.706L110.204 110.861Z" fill="#3D0C02"/>
<path opacity="0.1" d="M157 37.3725C156.965 37.2451 156.898 37.1313 156.806 37.0446C156.436 36.6715 155.639 36.5408 154.437 36.6548L154.486 37.2822C156.089 37.1301 156.406 37.4819 156.447 37.5413V37.6007L156.496 37.6791C156.696 37.9754 156.838 38.3144 156.912 38.6746C156.986 39.0347 156.991 39.4079 156.927 39.7704C156.576 41.7072 154.419 43.2496 154.398 43.2662L154.346 43.2995L154.314 43.3541C153.383 44.8775 148.12 49.1765 146.743 50.2887L146.622 50.1366C146.006 50.726 140.59 55.9566 140.297 57.96C140.107 59.2171 138.823 59.7043 138.358 59.8398C137.867 59.4286 136.272 58.0289 135.443 56.4604C134.665 54.9846 137.796 52.1043 138.071 50.9802L137.641 50.4931C137.595 50.6737 133.575 54.8183 134.693 56.9357C135.59 58.6349 137.227 60.0893 137.8 60.5693C137.617 62.404 136.477 73.1766 134.726 75.7289C132.55 78.9015 130.72 94.8905 130.923 100.473C131.102 105.433 129.928 114.801 126.007 118.824C125.328 119.551 124.509 120.1 123.611 120.429C122.713 120.758 121.759 120.859 120.821 120.725H120.773H120.726C120.67 120.725 114.982 121.367 110.204 116.923C106.293 113.294 104.079 107.372 103.618 99.3155H103.523L103.484 96.9699C104.544 96.7874 105.499 96.1586 106.148 95.2158C106.797 94.273 107.089 93.0896 106.963 91.9141C106.838 90.7385 106.304 89.6625 105.474 88.9121C104.644 88.1617 103.583 87.7952 102.513 87.8898C101.444 87.9843 100.449 88.5325 99.738 89.4192C99.0271 90.3058 98.6554 91.4619 98.701 92.6444C98.7467 93.827 99.2061 94.9441 99.9827 95.7608C100.759 96.5776 101.793 97.0306 102.866 97.0245H102.913L102.952 99.3559L102.762 99.3701C103.236 107.688 105.563 113.841 109.657 117.64C112.768 120.484 116.742 121.919 120.776 121.654C121.062 121.689 121.349 121.706 121.637 121.707C123.486 121.717 125.265 120.928 126.593 119.508C130.723 115.266 131.979 105.554 131.783 100.425C131.567 94.5102 133.487 79.0964 135.413 76.2898C137.3 73.5354 138.444 62.8032 138.644 60.7238C139.327 60.5123 140.872 59.8445 141.135 58.1097C141.325 56.8549 144.942 52.9884 147.167 50.8472L147.101 50.7616C148.299 49.7968 152.024 46.7549 153.87 44.8014C154.443 44.1954 155.012 43.5894 155.606 43.0119C156.322 42.3132 157.231 41.2034 157.47 39.8916C157.551 39.4586 157.552 39.0117 157.471 38.5785C157.39 38.1453 157.23 37.7349 157 37.3725Z" fill="black"/>
<path d="M137.727 60.4196C137.636 60.3507 135.49 58.6563 134.415 56.6172C133.299 54.4998 137.32 50.3576 137.363 50.177L137.794 50.6642C137.52 51.7859 134.39 54.6685 135.167 56.1419C136.148 58.0027 138.212 59.6306 138.233 59.6473L137.727 60.4196Z" fill="#353146"/>
<path d="M146.463 50.7497L146.127 50.2388C146.196 50.1841 152.963 44.7848 154.029 43.0381L154.064 42.9858L154.113 42.9501C154.135 42.9335 156.291 41.3935 156.643 39.4543C156.707 39.0923 156.703 38.7192 156.628 38.3594C156.554 37.9996 156.412 37.6609 156.212 37.3654L156.162 37.2846V37.2276C156.119 37.1658 155.802 36.8164 154.2 36.9685L154.15 36.3388C155.354 36.2247 156.149 36.3554 156.52 36.7285C156.612 36.8161 156.68 36.9306 156.716 37.0588C156.949 37.4202 157.112 37.8303 157.196 38.264C157.28 38.6976 157.282 39.1456 157.203 39.5803C156.964 40.8945 156.057 42.0043 155.339 42.7006C154.747 43.2781 154.176 43.8888 153.605 44.4901C151.44 46.7786 146.7 50.562 146.463 50.7497Z" fill="#E8F5FF"/>
<path d="M103.206 96.1426L102.635 96.1541L102.699 99.982L103.27 99.9705L103.206 96.1426Z" fill="#E8F5FF"/>
<path d="M102.588 96.7228C104.89 96.7228 106.757 94.664 106.757 92.1243C106.757 89.5846 104.89 87.5258 102.588 87.5258C100.286 87.5258 98.4192 89.5846 98.4192 92.1243C98.4192 94.664 100.286 96.7228 102.588 96.7228Z" fill="#6C63FF"/>
<path d="M102.588 95.9433C104.5 95.9433 106.05 94.2335 106.05 92.1243C106.05 90.0151 104.5 88.3053 102.588 88.3053C100.676 88.3053 99.1256 90.0151 99.1256 92.1243C99.1256 94.2335 100.676 95.9433 102.588 95.9433Z" fill="#E8F5FF"/>
<path d="M121.366 121.4C121.078 121.4 120.791 121.384 120.504 121.35C116.471 121.612 112.498 120.178 109.385 117.336C105.292 113.534 102.969 107.388 102.491 99.0635L103.353 99.0041C103.814 107.06 106.029 112.985 109.941 116.611C114.72 121.044 120.405 120.414 120.461 120.414H120.509H120.556C121.495 120.547 122.449 120.446 123.347 120.117C124.245 119.787 125.064 119.239 125.744 118.513C129.663 114.489 130.837 105.121 130.658 100.161C130.443 94.5743 132.272 78.5854 134.45 75.4152C136.357 72.6371 137.539 60.1154 137.552 59.9894L137.585 59.633L137.904 59.5712C137.923 59.5712 139.784 59.1814 140.017 57.6462C140.319 55.6452 145.726 50.4146 146.34 49.8229L146.903 50.5358C144.668 52.6746 141.051 56.5436 140.87 57.8007C140.607 59.5403 139.063 60.2057 138.382 60.4148C138.166 62.4966 137.031 73.2264 135.15 75.9808C133.224 78.7874 131.305 94.2012 131.52 100.116C131.705 105.245 130.462 114.96 126.332 119.199C125.002 120.622 123.219 121.413 121.366 121.4Z" fill="#353146"/>
<g opacity="0.1">
<path d="M156.425 24.3518C156.778 22.9117 157.205 21.462 157.502 20.0028C157.147 21.4691 156.718 22.9117 156.425 24.3518Z" fill="black"/>
<path d="M152.821 35.6686C152.39 34.6253 152.62 33.418 152.629 32.2726C152.638 31.1271 152.254 29.7868 151.254 29.466C149.255 28.8505 147.876 32.9641 145.911 32.2203C144.403 31.6523 144.802 29.1309 143.931 27.6741C143.244 26.5191 141.867 26.1959 140.799 25.4735C138.519 23.9311 138.588 21.4644 137.533 19.1307C136.423 16.6829 134.086 17.4053 132.052 18.8502C130.507 19.9482 129.178 21.4192 127.528 22.2961C126.099 23.0542 124.494 23.3299 122.911 23.3703C120.982 23.4202 118.884 23.0423 117.559 21.4976C116.538 20.3094 116.169 18.5674 116.38 16.9348C116.344 17.0465 116.312 17.1582 116.279 17.2699C115.762 19.1402 116.064 21.3384 117.272 22.7595C118.597 24.3043 120.696 24.6797 122.624 24.6322C124.21 24.5918 125.813 24.3161 127.243 23.558C128.898 22.6787 130.227 21.2101 131.767 20.1121C133.801 18.6672 136.141 17.9448 137.248 20.3926C138.304 22.7263 138.237 25.1931 140.515 26.7354C141.592 27.4483 142.96 27.781 143.649 28.936C144.511 30.3975 144.13 32.9142 145.629 33.4822C147.592 34.2237 148.971 30.1124 150.97 30.7279C151.97 31.0368 152.355 32.3914 152.345 33.5345C152.334 34.6776 152.11 35.8872 152.536 36.9305C154.193 36.8473 156.242 36.4552 156.722 34.6966C156.789 34.4442 156.819 34.1821 156.813 33.9195C156.113 35.2527 154.312 35.5949 152.821 35.6686Z" fill="black"/>
</g>
<path opacity="0.1" d="M191.758 94.2251L194.259 97.1434C194.259 97.1434 196.261 113.225 197.261 114.729C198.26 116.234 200.621 122.218 198.405 126.712C198.405 126.712 197.689 129.157 198.118 130.181C198.547 131.206 194.904 136.332 194.904 136.332C194.904 136.332 190.114 141.061 189.112 141.771C188.111 142.482 182.824 148.157 181.038 148.235C179.252 148.314 178.668 150.759 178.668 150.759L168.589 151.154C168.589 151.154 163.022 150.833 161.811 151.7C161.811 151.7 162.458 142.318 156.238 136.168L164.171 133.014C164.171 133.014 167.174 131.588 168.102 130.098C168.687 129.185 169.515 128.496 170.472 128.128C170.472 128.128 172.687 126.393 172.758 125.447C172.829 124.501 175.466 123.342 175.466 123.342L173.973 109.285L174.76 85.9478C174.76 85.9478 177.261 66.3941 182.55 67.4992C187.839 68.6042 191.758 94.2251 191.758 94.2251Z" fill="black"/>
<path d="M192.62 94.2251L195.121 97.1434C195.121 97.1434 197.122 113.225 198.122 114.729C199.122 116.234 201.483 122.218 199.266 126.712C199.266 126.712 198.553 129.157 198.982 130.181C199.41 131.206 195.765 136.332 195.765 136.332C195.765 136.332 190.976 141.061 189.974 141.771C188.972 142.482 183.685 148.157 181.899 148.235C180.113 148.314 179.529 150.759 179.529 150.759L169.451 151.154C169.451 151.154 163.879 150.833 162.673 151.7C162.673 151.7 163.319 142.318 157.099 136.168L165.032 133.014C165.032 133.014 168.035 131.588 168.964 130.098C169.548 129.185 170.377 128.496 171.334 128.128C171.334 128.128 173.549 126.393 173.62 125.447C173.691 124.501 176.328 123.342 176.328 123.342L174.835 109.285L175.621 85.9478C175.621 85.9478 178.122 66.3941 183.412 67.4992C188.701 68.6042 192.62 94.2251 192.62 94.2251Z" fill="white"/>
<path opacity="0.1" d="M183.321 117.8C183.321 117.8 190.683 115.661 192.613 118.275C194.544 120.889 183.321 117.8 183.321 117.8Z" fill="black"/>
<path opacity="0.1" d="M181.606 121.386C184.108 123.318 191.827 123.396 191.827 123.396L181.606 121.386Z" fill="black"/>
<path opacity="0.1" d="M185.394 131.044C185.609 131.122 190.7 137.116 192.838 135.303C194.975 133.489 185.394 131.044 185.394 131.044Z" fill="black"/>
<path opacity="0.1" d="M116.831 80.7434C116.831 80.7434 118.326 92.0982 117.589 96.7228C116.852 101.347 119.541 107.077 119.541 107.077L116.831 80.7434Z" fill="black"/>
<path d="M83.73 85.3608C82.0064 86.8509 80.7482 90.3776 79.8369 94.2536C78.2469 101.015 77.7277 108.855 77.7277 108.855C77.7277 108.855 64.004 105.385 65.0036 103.809C65.6327 102.818 64.7882 95.3515 64.0837 89.9379C63.6636 86.7392 63.2887 84.2558 63.2887 84.2558C63.2887 84.2558 88.4482 81.259 83.73 85.3608Z" fill="#3D0C02"/>
<path opacity="0.1" d="M83.73 85.0447C82.0064 86.5372 80.7482 90.0615 79.8369 93.9375C77.1026 94.8533 74.1946 94.936 71.4212 94.1766C68.6478 93.4172 66.1123 91.8442 64.0837 89.6242C63.6636 86.4231 63.2887 83.9397 63.2887 83.9397C63.2887 83.9397 88.4482 80.9453 83.73 85.0447Z" fill="black"/>
<path d="M91.1069 76.5512C91.1083 80.6847 89.784 84.6854 87.3684 87.8454C84.9528 91.0054 81.6016 93.1208 77.9079 93.8174C74.2143 94.5139 70.4163 93.7466 67.1862 91.6513C63.9561 89.5559 61.5022 86.2677 60.2586 82.3684C59.0151 78.4692 59.0623 74.2105 60.3917 70.3459C61.7211 66.4813 64.2471 63.2601 67.5226 61.2523C70.7981 59.2446 74.6119 58.5798 78.2891 59.3755C81.9662 60.1713 85.2696 62.3764 87.6146 65.6004C89.8743 68.7061 91.1062 72.569 91.1069 76.5512Z" fill="#3D0C02"/>
<path opacity="0.1" d="M103.62 186.002H99.0956L98.7142 177.188L98.3157 168.065C98.3157 168.065 99.3433 167.896 100.981 167.644L101.642 167.547H101.696C102.054 169.398 102.407 171.299 102.747 173.198C103.314 176.569 103.609 179.988 103.629 183.417C103.629 183.654 103.629 183.892 103.629 184.115C103.641 184.75 103.629 185.384 103.62 186.002Z" fill="black"/>
<path d="M102.752 186.002H46.0123C46.2579 185.387 46.4217 185.014 46.4217 185.014C46.4217 185.014 50.9611 163.107 53.2685 153.839C53.2692 153.831 53.2692 153.823 53.2685 153.815C53.5568 152.556 53.9048 151.315 54.3112 150.096C54.3375 150.013 54.3714 149.934 54.4125 149.858C55.5543 147.81 56.9849 145.602 54.9834 142.449C52.9819 139.295 53.6907 125.419 53.6907 125.419C53.6907 125.419 56.1209 113.591 58.6933 107.284C59.0837 106.307 59.6378 105.42 60.3264 104.67C60.5503 104.428 60.7893 104.204 61.0417 103.999C61.2335 103.84 61.4335 103.694 61.6406 103.56L61.6815 103.531C62.7622 102.855 63.9621 102.445 65.1997 102.326C66.0789 102.225 66.9663 102.252 67.8389 102.407C72.0099 103.082 75.3493 104.211 78.0036 105.497C85.1972 108.983 87.3754 113.655 87.4185 113.753L87.4357 113.793C87.7244 114.537 91.9471 125.412 93.4681 130.485C93.8624 131.807 94.0778 132.736 93.9916 132.99C93.5607 134.25 97.2793 150.018 97.2793 150.018C97.2793 150.018 99.0028 157.622 100.726 166.537C100.802 166.907 100.873 167.278 100.942 167.654C101.25 169.272 101.556 170.921 101.851 172.568C102.423 175.962 102.718 179.406 102.732 182.858C102.764 183.934 102.77 184.982 102.752 186.002Z" fill="#FF748E"/>
<path opacity="0.1" d="M64.8615 96.9034C64.8615 96.9034 60.9469 95.2398 60.9943 97.7637C61.0417 100.287 61.9487 101.495 61.6622 101.863C61.3757 102.231 61.8044 104.439 61.8044 104.439C61.8044 104.439 67.0935 104.439 69.5237 105.646C71.9539 106.854 80.9121 109.273 82.0561 110.01C83.2001 110.746 87.4422 114.05 87.4422 114.05L87.8235 107.795C87.8235 107.795 83.4392 103.8 76.2456 101.751C69.0519 99.7029 64.8615 96.9034 64.8615 96.9034Z" fill="black"/>
<path d="M64.8615 96.5873C64.8615 96.5873 60.9469 94.9238 60.9943 97.4476C61.0417 99.9714 61.9487 101.179 61.6622 101.547C61.3757 101.915 61.8044 104.123 61.8044 104.123C61.8044 104.123 67.0935 104.123 69.5237 105.333C71.9539 106.542 80.9121 108.959 82.0561 109.694C83.2001 110.428 87.4422 113.734 87.4422 113.734L87.8278 107.498C87.8278 107.498 83.4436 103.503 76.2499 101.454C69.0562 99.4058 64.8615 96.5873 64.8615 96.5873Z" fill="#FF748E"/>
<path opacity="0.1" d="M76.6786 111.64C76.6786 111.64 84.1588 120.573 83.7775 123.047C83.3961 125.521 76.6786 111.64 76.6786 111.64Z" fill="black"/>
<path opacity="0.1" d="M64.5275 143.91C64.5275 143.91 59.0445 149.483 57.4287 149.799C55.8129 150.115 58.6675 151.166 60.5246 150.327C62.3817 149.488 66.3416 147.28 66.3416 147.28L64.5275 143.91Z" fill="black"/>
<path d="M104.979 186.002H92.1929C90.4047 184.291 88.7135 182.706 87.6362 181.753C85.9127 180.227 84.6696 177.982 83.8767 176.176C83.6979 175.764 83.5428 175.379 83.4114 175.03C83.176 174.428 82.9689 173.814 82.7909 173.188L92.2597 166.986C92.783 167.477 93.2746 168.007 93.7311 168.573L93.8453 168.718C94.371 169.403 94.8342 170.18 94.8752 170.817C94.9226 171.558 96.7926 174.426 98.7036 177.181C100.643 179.983 102.629 182.661 102.76 182.842C102.76 182.842 103.088 183.333 103.622 184.089C103.999 184.636 104.465 185.292 104.979 186.002Z" fill="#3D0C02"/>
<path opacity="0.1" d="M87.6146 65.6004C87.16 66.7316 86.7529 67.9056 86.6925 69.1651C86.5223 72.8011 86.7981 80.9311 83.1485 82.7562C81.3409 83.6545 79.4062 81.6821 77.4242 81.6345C75.9979 81.6013 74.6902 82.5994 73.8198 83.847C72.9494 85.0947 72.4086 86.5752 71.7774 87.9869C71.2028 89.2681 70.5409 90.4995 69.7975 91.6704C69.5752 92.0287 69.3305 92.3694 69.0649 92.6899C66.8395 91.6541 64.8579 90.0716 63.2709 88.063C61.6839 86.0544 60.5336 83.6728 59.9074 81.0995C59.2813 78.5262 59.196 75.8292 59.6579 73.2141C60.1198 70.5989 61.1169 68.1345 62.573 66.0088C64.0291 63.883 65.9059 62.1519 68.0605 60.9475C70.215 59.743 72.5903 59.0969 75.0054 59.0585C77.4206 59.02 79.8118 59.5902 81.997 60.7255C84.1821 61.8608 86.1035 63.5314 87.6146 65.6099V65.6004Z" fill="black"/>
<path d="M86.4059 68.5234C86.2335 72.1594 86.5115 80.2894 82.8597 82.1121C81.0521 83.0104 79.1174 81.0403 77.1353 80.9928C75.7091 80.9572 74.4035 81.9577 73.531 83.2029C72.6584 84.4482 72.122 85.9311 71.4886 87.3452C70.9138 88.6263 70.2519 89.8577 69.5086 91.0287C69.0648 91.7226 68.5736 92.4189 67.8907 92.8087C66.7014 93.4931 65.2601 93.1081 63.9847 92.6685C62.33 92.0934 60.6999 91.4454 59.0941 90.7245C59.1309 90.4571 59.1497 90.187 59.1501 89.9165C59.1027 90.0163 59.051 90.109 58.9993 90.2088L58.898 90.4037C58.7149 90.7602 58.5361 91.1166 58.3724 91.4826C58.3099 91.6228 58.2495 91.7678 58.1957 91.9127C57.979 92.4522 57.843 93.0268 57.7928 93.6143C57.6829 95.1994 58.3917 96.7037 59.0208 98.1296C61.4403 103.645 62.9354 110.095 61.1149 115.882C60.3264 118.399 58.9605 120.635 57.963 123.066C56.2193 127.372 55.706 132.162 56.4915 136.797C56.9892 139.678 57.9867 142.529 57.7411 145.45C57.3102 150.476 53.3805 154.217 49.4444 156.788C47.3179 158.171 44.7154 159.402 42.4575 158.309C43.8967 156.456 44.2672 153.891 44.5775 151.472C45.4263 144.873 46.2773 138.272 47.1305 131.667C47.4709 129.038 47.8106 126.41 48.1495 123.781C48.7829 118.843 49.425 113.85 49.0286 108.881C48.7399 105.219 47.9255 101.331 49.3646 98.0156C50.1252 96.2593 51.4803 94.8049 51.9026 92.9132C52.2494 91.3757 51.9263 89.7406 52.1546 88.1745C52.2796 87.462 52.4913 86.7713 52.7837 86.1213C53.1562 85.2391 53.6424 84.421 54.2272 83.6925C53.6498 83.5071 53.1112 83.2528 52.7837 82.7205C53.7101 82.0551 53.8502 80.5555 53.4301 79.4291C53.01 78.3026 52.1697 77.4447 51.4135 76.5559C50.6573 75.6671 49.9291 74.631 49.8343 73.419C49.6512 71.1114 51.741 69.3243 52.1094 67.0476C52.4821 64.7305 51.0085 62.4776 51.127 60.1321C51.2649 57.2969 53.6261 55.2365 55.9572 54.0411C59.475 52.2449 63.3609 51.507 67.2206 51.9023C70.3618 52.2303 73.4017 53.302 76.5343 53.7179C78.4237 53.9556 80.339 53.9793 82.2155 54.3453C84.092 54.7113 85.9728 55.4837 87.2935 57.0022C90.7751 61.0066 86.6041 64.3028 86.4059 68.5234Z" fill="black"/>
<path opacity="0.1" d="M83.4931 176.178C82.3943 175.653 80.395 175.967 76.963 174.814C73.531 173.661 72.8696 168.452 72.8696 168.452V168.436C72.8286 168.317 72.5098 167.542 70.351 164.828C67.9661 161.831 62.8105 146.696 62.8105 146.696C62.8105 146.696 58.2388 141.28 58.3831 139.283C58.5275 137.287 57.5709 131.976 57.6657 126.034C57.7605 120.093 67.9574 116.153 67.9574 116.153C87.5908 112.315 82.9674 137.282 82.4439 139.174C81.9204 141.066 84.6371 146.175 84.6371 146.175C84.2536 148.399 86.2099 151.843 86.2099 151.843C86.2099 151.843 86.6838 154.89 86.7808 156.047C86.7862 156.1 86.797 156.153 86.8131 156.204C87.1276 157.295 89.6914 158.283 90.7342 158.884C91.8308 159.517 95.3576 165.035 95.3576 165.035C96.1181 169.087 84.5876 176.71 83.4931 176.178Z" fill="black"/>
<path d="M84.0639 175.227C82.9673 174.7 80.9659 175.016 77.536 173.861C74.1061 172.706 73.4426 167.501 73.4426 167.501V167.485C73.4038 167.364 73.0828 166.591 70.924 163.877C68.5391 160.88 63.3835 145.742 63.3835 145.742C63.3835 145.742 58.8118 140.329 58.954 138.332C59.0962 136.336 58.1439 131.025 58.2387 125.088C58.3335 119.152 68.524 115.214 68.524 115.214C88.1574 111.376 83.5339 136.343 83.0104 138.235C82.4869 140.127 85.2036 145.236 85.2036 145.236C84.8201 147.46 86.7764 150.904 86.7764 150.904C86.7764 150.904 87.2504 153.951 87.3495 155.108C87.3531 155.162 87.3632 155.214 87.3796 155.265C87.6942 156.356 90.2579 157.344 91.3028 157.946C92.3973 158.575 95.9263 164.096 95.9263 164.096C96.6911 168.141 85.1605 175.764 84.0639 175.227Z" fill="#FF748E"/>
<path opacity="0.1" d="M68.9119 128.249C68.9119 128.249 77.4887 138.23 79.7271 138.23C81.9656 138.23 68.9119 128.249 68.9119 128.249Z" fill="black"/>
<path d="M84.064 175.227C82.9674 174.7 80.9659 175.016 77.5361 173.861C74.1062 172.706 73.4426 167.501 73.4426 167.501V167.485C75.7156 165.821 81.4722 161.123 83.7408 159.405C85.3373 158.2 86.6407 156.429 87.4034 155.255C87.7179 156.346 90.2817 157.335 91.3266 157.936C92.4211 158.566 95.95 164.086 95.95 164.086C96.6912 168.141 85.1606 175.764 84.064 175.227Z" fill="#FF748E"/>
<g opacity="0.1">
<path d="M52.7966 82.7467C52.8074 82.7657 52.8225 82.7824 52.8354 82.8014C52.9 82.7111 52.9668 82.6208 53.0358 82.5352C52.9623 82.6139 52.8823 82.6848 52.7966 82.7467Z" fill="black"/>
<path d="M57.795 93.6404C57.8855 92.3215 58.5253 91.1594 59.1243 89.9997C58.7321 89.8333 58.34 89.6646 57.9522 89.4887C57.9892 89.2221 58.0079 88.9528 58.0083 88.6831C57.4029 89.8713 56.7436 91.0406 56.651 92.3785C56.5411 93.966 57.2499 95.468 57.879 96.8938C60.3006 102.407 61.7936 108.857 59.9731 114.646C59.1824 117.16 57.8187 119.399 56.8212 121.83C55.0781 126.136 54.5655 130.924 55.3518 135.559C55.8452 138.442 56.8449 141.291 56.5993 144.212C56.1684 149.238 52.2408 152.979 48.3025 155.548C46.6931 156.598 44.8123 157.561 43.0134 157.492C42.8468 157.787 42.6611 158.069 42.4575 158.335C44.7175 159.436 47.3179 158.197 49.4444 156.81C53.3848 154.243 57.321 150.512 57.7519 145.476C57.9975 142.555 56.9978 139.706 56.5023 136.823C55.7158 132.189 56.2268 127.401 57.9673 123.095C58.9584 120.666 60.3372 118.425 61.1193 115.91C62.9398 110.121 61.4446 103.672 59.0252 98.1581C58.3982 96.7227 57.6851 95.2279 57.795 93.6404Z" fill="black"/>
<path d="M87.2892 57.0308C87.0773 56.791 86.8498 56.5686 86.6084 56.3654C89.2196 60.1012 85.4493 63.2762 85.2619 67.2972C85.0939 70.9332 85.3696 79.0655 81.7179 80.8859C79.9124 81.7866 77.9756 79.8141 75.9957 79.7666C74.5673 79.7333 73.2617 80.7338 72.3891 81.9791C71.5166 83.2243 70.9801 84.7073 70.3489 86.1189C69.773 87.3999 69.1105 88.6312 68.3668 89.8024C67.9359 90.4987 67.4318 91.1927 66.7467 91.5848C65.5617 92.2668 64.1204 91.8842 62.8428 91.4422C61.6004 91.0113 60.3695 90.536 59.1501 90.0163C59.1476 90.2638 59.1289 90.5108 59.0941 90.7554C60.7013 91.4778 62.3322 92.1258 63.9868 92.6994C65.2623 93.1414 66.7036 93.524 67.8907 92.8419C68.5736 92.4498 69.0692 91.7535 69.5108 91.0572C70.255 89.8877 70.9169 88.657 71.4907 87.376C72.1242 85.9644 72.6585 84.4791 73.5332 83.2338C74.4079 81.9886 75.7113 80.9904 77.1375 81.0237C79.1196 81.0712 81.0564 83.0437 82.8619 82.143C86.5136 80.3227 86.2357 72.1903 86.4059 68.5543C86.6041 64.3266 90.7751 61.0328 87.2892 57.0308Z" fill="black"/>
</g>
<path opacity="0.1" d="M58.9002 90.406C58.7171 90.7625 58.5382 91.119 58.3745 91.4849C58.312 91.6252 58.2517 91.7701 58.1978 91.9151C57.0689 90.6603 54.3198 87.6778 52.7859 86.7534C53.1589 85.8715 53.645 85.0536 54.2294 84.3246C54.2294 84.3246 57.8854 86.4563 58.9002 90.406Z" fill="black"/>
<path d="M59.0014 90.2113C58.1548 85.9835 54.2294 83.695 54.2294 83.695C53.6445 84.4235 53.1583 85.2416 52.7859 86.1237C54.4039 87.1005 57.3856 90.3752 58.3745 91.4851L59.0014 90.2113Z" fill="#FF748E"/>
</g>
<defs>
<linearGradient id="paint0_linear_1_4" x1="157.28" y1="22.674" x2="157.28" y2="18.306" gradientUnits="userSpaceOnUse">
<stop stop-color="#808080" stop-opacity="0.25"/>
<stop offset="0.54" stop-color="#808080" stop-opacity="0.12"/>
<stop offset="1" stop-color="#808080" stop-opacity="0.1"/>
</linearGradient>
<linearGradient id="paint1_linear_1_4" x1="121.258" y1="186.003" x2="121.258" y2="-3.58121e-05" gradientUnits="userSpaceOnUse">
<stop stop-color="#808080" stop-opacity="0.25"/>
<stop offset="0.54" stop-color="#808080" stop-opacity="0.12"/>
<stop offset="1" stop-color="#808080" stop-opacity="0.1"/>
</linearGradient>
<clipPath id="clip0_1_4">
<rect width="234" height="186" fill="white"/>
</clipPath>
</defs>
</svg>
